<svg width="120" height="100" viewBox="0 0 120 100" fill="none" xmlns="http://www.w3.org/2000/svg">
<rect width="120" height="100" fill="#E5E5E5"/>
<rect width="120" height="100" fill="white"/>
<path d="M38 30.814L61.0769 25L83 30.814V63.3721L61.0769 75L38 63.3721V30.814Z" stroke="#4CC3AD"/>
<path d="M56.4448 45.496C56.4448 44.856 56.3248 44.336 56.0848 43.936C55.8448 43.536 55.5488 43.224 55.1968 43C54.8608 42.76 54.5088 42.6 54.1408 42.52C53.7728 42.424 53.4608 42.376 53.2048 42.376C52.9488 42.376 52.6368 42.424 52.2688 42.52C51.9008 42.6 51.5408 42.752 51.1888 42.976C50.8528 43.2 50.5568 43.512 50.3008 43.912C50.0608 44.312 49.9408 44.832 49.9408 45.472V53.896C49.9408 54.536 50.0608 55.048 50.3008 55.432C50.5568 55.8 50.8528 56.088 51.1888 56.296C51.5408 56.488 51.9008 56.616 52.2688 56.68C52.6368 56.728 52.9488 56.752 53.2048 56.752C53.4608 56.752 53.7728 56.728 54.1408 56.68C54.5088 56.616 54.8608 56.488 55.1968 56.296C55.5488 56.088 55.8448 55.8 56.0848 55.432C56.3248 55.048 56.4448 54.536 56.4448 53.896V45.496ZM57.8128 53.896C57.8128 54.216 57.7568 54.592 57.6448 55.024C57.5328 55.456 57.3408 55.88 57.0688 56.296C56.8128 56.712 56.4608 57.088 56.0128 57.424C55.5648 57.76 54.9968 57.992 54.3088 58.12C54.4688 58.504 54.7408 58.784 55.1248 58.96L54.7168 60.424C54.2528 60.232 53.8528 59.952 53.5168 59.584C53.1808 59.232 52.9408 58.776 52.7968 58.216C51.9808 58.168 51.3008 57.984 50.7568 57.664C50.2288 57.328 49.7968 56.936 49.4608 56.488C49.1408 56.04 48.9168 55.576 48.7888 55.096C48.6608 54.616 48.5968 54.208 48.5968 53.872V45.496C48.5968 45.144 48.6608 44.712 48.7888 44.2C48.9328 43.688 49.1808 43.192 49.5328 42.712C49.8848 42.232 50.3568 41.824 50.9488 41.488C51.5408 41.152 52.2928 40.984 53.2048 40.984C54.1008 40.984 54.8448 41.152 55.4368 41.488C56.0288 41.824 56.5008 42.232 56.8528 42.712C57.2048 43.192 57.4528 43.688 57.5968 44.2C57.7408 44.712 57.8128 45.144 57.8128 45.496V53.896ZM66.8976 51.64L70.0656 41.2H72.1536V58H70.8576V44.032H70.5456L67.7376 53.056H65.6496L62.8656 44.032H62.5776V58H61.3056V41.2H63.3936L66.5136 51.64H66.8976Z" fill="#4CC3AD"/>
</svg>
